<?xml version="1.0" encoding="utf-8"?>
<!-- Generator: Adobe Illustrator 19.2.1, SVG Export Plug-In . SVG Version: 6.00 Build 0)  -->
<svg version="1.1" id="layer" xmlns="http://www.w3.org/2000/svg" xmlns:xlink="http://www.w3.org/1999/xlink" x="0px" y="0px"
	 viewBox="0 0 652 652" style="enable-background:new 0 0 652 652;" xml:space="preserve">
<style type="text/css">
	.st0{fill:#231F20;}
</style>
<g>
	<path class="st0" d="M576.5,333.4c-1.4,6-2.9,11.9-4.4,18c1.2-1.1,2.1-2,3.1-2.9c5.2-4.9,10.5-9.8,15.7-14.6
		c0.2-0.2,0.6-0.5,0.9-0.5c4.9,0,9.9,0,15.1,0c-8.1,7-16,13.8-24,20.7c5,7.7,10,15.2,15,23c-0.4,0-0.7,0.1-0.9,0.1
		c-4.7,0-9.5,0-14.2,0c-0.7,0-1-0.2-1.3-0.8c-3.4-5.7-6.7-11.3-10.1-16.9c-0.2-0.4-0.5-0.8-0.8-1.3c-1.6,6.4-3.1,12.7-4.6,19h-12.4
		c3.5-14.6,7.1-29.1,10.6-43.7H576.5z"/>
	<path class="st0" d="M499.1,377.1c-0.1,0-0.2-0.1-0.4-0.1c0.7-1,1.3-2,2-3c8.8-13.3,17.6-26.6,26.4-39.9c0.2-0.3,0.6-0.6,0.8-0.7
		c4.3,0,8.7,0,13.2,0c2.4,14.6,4.9,29.1,7.3,43.7h-13.2c-0.3-2-0.6-4-1-6c-0.3-1.7,0.1-1.5-1.8-1.5c-4.8,0-9.7,0-14.5,0
		c-0.7,0-1.1,0.2-1.5,0.8c-1.4,2.1-2.7,4.1-4.2,6.2c-0.2,0.3-0.6,0.6-0.9,0.6C507.2,377.1,503.2,377.1,499.1,377.1 M522.5,360.7
		h10.1c-0.5-4.6-1.1-9.1-1.6-13.6c-0.1,0-0.1,0-0.2-0.1C528.1,351.6,525.4,356,522.5,360.7"/>
	<path class="st0" d="M486.7,334c1.8,3.7,3.7,7.4,5.6,11.1c1.8-1.8,3.5-3.5,5.2-5.2c2-2,4-4,6-6c0.3-0.3,0.7-0.5,1.1-0.5
		c4.6,0,9.2,0,13.8,0c-3.2,3.3-6.4,6.7-9.7,10c-4.1,4.1-8.3,8.2-12.4,12.3c-0.3,0.3-0.5,0.7-0.6,1.2c-1.6,6.5-3.1,12.9-4.7,19.4
		c-0.1,0.3-0.1,0.5-0.2,0.8h-12.4c0.4-1.5,0.7-3,1.1-4.5c1.3-5.2,2.5-10.3,3.8-15.5c0.2-0.7,0-1.3-0.3-1.9c-3.7-7-7.4-14-11.1-21
		c-0.1-0.2-0.2-0.4-0.3-0.7c0.3,0,0.5-0.1,0.8-0.1c4.4,0,8.8,0,13.3,0C486.1,333.3,486.4,333.5,486.7,334"/>
	<path class="st0" d="M389.8,333.4h12.4c-1.4,6-2.9,11.9-4.4,18c3.4-3.1,6.6-6.1,9.8-9.1c3-2.8,6-5.6,9-8.4c0.3-0.3,0.7-0.5,1.1-0.5
		c4.8,0,9.6,0,14.3,0c0.1,0,0.2,0,0.5,0.1c-8,6.9-15.9,13.7-23.8,20.6c4.4,6.7,8.8,13.4,13.2,20.2c1.1-1.6,2.1-3.1,3-4.6
		c7.8-11.9,15.7-23.7,23.5-35.6c0.4-0.6,0.8-0.8,1.5-0.8c4.2,0,8.3,0,12.6,0c2.4,14.5,4.9,29.1,7.3,43.7h-13.2
		c-0.4-2.2-0.7-4.3-1-6.5c-0.1-0.7-0.3-1.1-1.2-1.1c-5,0.1-10.1,0-15.1,0c-0.6,0-1,0.2-1.3,0.7c-1.4,2.1-2.8,4.2-4.2,6.3
		c-0.3,0.5-0.7,0.7-1.2,0.7c-8,0-16,0-24,0c-0.6,0-1-0.2-1.3-0.7c-3.4-5.8-6.9-11.5-10.3-17.3c-0.2-0.3-0.3-0.5-0.6-1
		c-0.4,1.5-0.7,2.8-1,4.1c-1.1,4.6-2.2,9.3-3.3,13.9c-0.2,0.7-0.4,1-1.2,1c-3.5,0-7,0-10.5,0h-1
		C382.7,362.4,386.2,347.9,389.8,333.4 M444,360.6h10.1c-0.5-4.2-1-8.3-1.5-12.5c0-0.4-0.1-0.7-0.2-1.3
		C449.5,351.5,446.8,356,444,360.6"/>
	<path class="st0" d="M385.5,238.1c3.6,1,5.1,4.2,3.6,7.6c-1.2,2.7-3.3,4.6-5.8,6c-3.3,1.9-7,2.7-10.8,2.8c-6.4,0.2-12.3,1.9-18,4.8
		c-17.2,8.5-34.5,16.8-51.8,25.2c-4.2,2-8.3,4.1-12.5,6.1c-1.9,0.9-3.5,2.3-4.7,4c-1.7,2.2-3.2,4.6-5.4,6.3
		c-4.5,3.3-9.4,5.4-15.1,4.9c-0.7-0.1-1.5-0.2-2.2-0.5c-2.6-0.9-3.7-3-2.9-5.7c0.7-2.5,2.4-4.2,4.3-5.7c3.8-2.9,8.2-4.2,12.9-4.7
		c3.1-0.3,6.3-0.5,9.4-1.2c2.6-0.7,5.1-2,7.6-3.2c19.8-9.4,39.6-18.8,59.4-28c4.5-2.1,7.7-5.4,10.8-9.2c1.4-1.7,2.9-3.2,4.4-4.7
		c3-2.8,6.7-4.4,10.8-5c0.2,0,0.3-0.1,0.4-0.2h4.1C384.6,237.8,385,237.9,385.5,238.1"/>
	<path class="st0" d="M327.7,281.1c0-4.1,4-7.6,8-7.2c2.4,0.3,4.1,2.1,4.4,4.7c0.4,4.1-4.1,8.3-8.2,7.6
		C329.2,285.7,327.7,283.8,327.7,281.1"/>
	<path class="st0" d="M310.2,289.7c1-2.1,3.2-3.1,5.8-2.6c2.6,0.5,4.9,1.7,7.1,3.2c1.5,1,2.9,1.9,4.7,2.1c2.3,0.3,4.4-0.3,6.3-1.3
		c3.1-1.6,5.6-4,7.9-6.6c4.2-4.9,7.7-10.2,10.2-16.1c0.5-1.1,1.1-2.3,1.8-3.3c1.4-1.9,3.5-2.4,5.7-1.9c1.4,0.3,2,1.3,1.4,2.6
		c-0.6,1.3-1.4,2.6-2.4,3.7c-2.4,2.7-5.1,5.1-7.3,7.8c-6.8,8.3-12,17.4-14.8,27.8c-0.2,0.6-0.3,1.1-0.4,1.7c-0.2,1.8-1.2,3-2.8,3.5
		c-1.4,0.5-2.9,0.8-4.1,1.1c-1.2-0.2-2.1-0.3-3-0.5c-1.3-0.4-1.6-0.9-1.8-2.2c-0.3-2.8-0.5-5.7-1-8.4c-0.2-1.3-0.9-2.6-1.6-3.8
		c-1.1-1.7-2.7-2.2-4.7-2c-1.3,0.2-2.7,0.5-4,0.5C310.2,294.9,308.8,292.5,310.2,289.7"/>
	<path class="st0" d="M319.1,328.8c1.7,0,4.5-1.5,5.3-2.7c0.2-0.2,0.3-0.7,0.2-0.8c-0.2-0.2-0.6-0.4-0.9-0.4c-2,0.2-3.8,1.1-5.2,2.7
		c-0.2,0.2-0.3,0.7-0.2,0.9C318.6,328.7,319,328.8,319.1,328.8 M298.8,333.9c2.6,0.2,4.6-0.8,6.2-2.6c1.8-2.1,3.5-4.3,5.1-6.5
		c1.5-2,2.9-4,4.2-6.1c1.4-2.2,3.4-3.1,5.9-3.2c3.2-0.1,6.4-0.3,9.7-0.3c3.3,0,6.2-1.3,8.8-3.1c9.1-6.2,18.1-12.4,27.2-18.7
		c0.2-0.1,0.3-0.2,0.5-0.3c0.7-0.4,1.1-0.3,1,0.6c-0.3,2.4-0.5,4.9-1,7.3c-1,5-2.4,9.9-4.7,14.5c-1.2,2.5-3,4.3-5.6,5.5
		c-12.4,5.7-24.7,11.7-36.6,18.4c-10.9,6.2-21.5,12.9-31.7,20.2c-2.2,1.6-4.6,2.4-7.2,2.9c-3.7,0.6-7.4,1-11.1,0.8
		c-0.5,0-1-0.1-1.4-0.2c-1-0.2-1.3-0.7-0.5-1.5c1.4-1.5,2.8-3,4.5-4.1c7.7-5.5,15.5-10.8,23.3-16.2c1.2-0.9,2.5-1.7,3.8-2.6
		c-1.2-0.5-2.4-0.9-3.5-1.4c-0.7-0.3-1.6-0.7-1.4-1.6c0.2-0.6,0.9-1.3,1.5-1.5C296.8,334,297.8,333.8,298.8,333.9"/>
	<path class="st0" d="M223.2,333.6c5.1,8.5,10.2,16.9,15.3,25.3c0.2,0.3,0.4,0.6,0.7,1c0.8-3.2,1.5-6.2,2.2-9.2
		c1.4-5.7,2.8-11.3,4.1-17c0.2-0.7,0.4-1,1.2-1c3.8,0.1,7.6,0,11.6,0c-0.5,2.1-1,4-1.4,5.9c-3,12.5-6.1,25-9.1,37.5
		c-0.2,0.7-0.4,1-1.2,1c-3.6,0-7.2,0-10.7,0c-0.7,0-1-0.2-1.4-0.8c-5.1-8.5-10.2-16.9-15.3-25.3c-0.2-0.3-0.4-0.5-0.6-1
		c-0.4,1.8-0.8,3.4-1.2,5c-1.7,7.1-3.5,14.3-5.2,21.4c-0.1,0.5-0.2,0.7-0.8,0.7c-3.8,0-7.7,0-11.5,0c-0.1,0-0.2,0-0.4-0.1
		c0.4-1.6,0.7-3.2,1.1-4.8c3.1-12.8,6.2-25.7,9.3-38.5c0.2-0.8,0.5-0.9,1.2-0.9c3.5,0,7.1,0,10.6,0
		C222.5,332.8,222.8,333,223.2,333.6"/>
</g>
<g>
	<path class="st0" d="M187.2,332.8h1.1c2.5,14.8,4.9,29.5,7.4,44.2h-13.4c-0.4-2.3-0.8-4.6-1.1-6.9c-0.1-0.6-0.3-0.8-0.8-0.7
		c-5.3,0-10.5,0-15.8,0c-0.4,0-0.8,0.3-1.1,0.6c-1.5,2.1-2.9,4.3-4.4,6.4c-0.2,0.3-0.6,0.6-0.9,0.6c-4.2,0-8.4,0-12.8,0
		c0.2-0.4,0.4-0.7,0.6-1c9.3-14.1,18.6-28.2,27.9-42.3c0.5-0.8,1-1.1,1.9-1C179.6,332.9,183.4,332.8,187.2,332.8 M169.5,360.6h10.3
		c-0.6-4.6-1.1-9.2-1.7-13.8c-0.1,0-0.2,0-0.2,0C175.1,351.4,172.4,355.9,169.5,360.6"/>
	<path class="st0" d="M180.5,396.4c9.3,1.5,18.7,1.9,28.1,1.1c17.7-1.4,34.3-6.6,50.3-14.1c14.6-6.8,28.2-15.3,41.1-24.9
		c22.6-16.6,47.2-29.4,73.7-38.5c15.8-5.4,31.9-9.4,48.3-12.1c11.5-1.8,23-3.1,34.6-3.4c5.6-0.1,11.1,0,16.8,0.2
		c-0.2,0.1-0.5,0.2-0.7,0.2c-12.9,2-25.7,4.3-38.5,7.2c-16.5,3.7-32.6,8.4-48.1,15.3c-12.6,5.6-24.4,12.4-35.7,20.3
		c-10.1,7.1-20,14.5-30,21.6c-15.8,11.3-32.6,20.8-50.9,27.5c-10.8,4-21.9,6.9-33.3,8.3c-17.1,2.2-34,1.2-50.4-4.4
		c-3.7-1.3-7.3-3.1-10.9-4.7c-0.4-0.2-0.7-0.4-1-0.6c0-0.1,0-0.2,0.1-0.3C176.2,395.7,178.3,396,180.5,396.4"/>
</g>
<g>
	<path class="st0" d="M125.7,333.2h27.1c-0.8,3.2-1.6,6.4-2.3,9.6h-14.7c-0.6,2.4-1.2,4.7-1.8,7.2H148c-0.8,3.3-1.6,6.4-2.3,9.7
		h-1.1c-4,0-8,0-12,0c-0.7,0-0.9,0.2-1.1,0.9c-0.5,2.2-1,4.4-1.6,6.7h14.7c-0.7,3.1-1.5,6.2-2.2,9.2c-0.1,0.2-0.6,0.4-1,0.4
		c-5.2,0-10.5,0-15.7,0h-9.4h-1.1C118.7,362.2,122.2,347.7,125.7,333.2"/>
</g>
<g>
	<path class="st0" d="M90.3,361.4c1.4,3.5,4.2,5,7.7,5.4c4.9,0.6,9.2-1,13.1-3.9c0.2-0.1,0.4-0.3,0.7-0.6c-0.4,1.6-0.7,3.1-1,4.5
		c-0.7,2.9-1.4,5.7-2.1,8.5c-0.1,0.3-0.4,0.7-0.7,0.8c-3.8,1.1-7.6,2.1-11.6,1.9c-6.5-0.2-12.3-2.3-16.5-7.5
		c-3-3.6-3.8-7.8-3.2-12.3c1.3-9.7,6.7-16.5,14.8-21.4c5.5-3.3,11.4-5.1,17.9-4.8c3.2,0.1,6.2,0.9,9.3,2.2c-1.1,4.5-2.2,9-3.3,13.5
		c-0.6-0.7-1.1-1.4-1.7-1.9c-2.6-2.3-5.7-3-9-2.7c-6.8,0.6-11.5,4.1-14.1,10.5C89.6,356.1,89.3,358.8,90.3,361.4"/>
	<path class="st0" d="M65.6,334.7c7.3,4,10.6,11.4,8.5,19.5c-3.2,12-11.2,19.4-23,22.9c-3,0.9-6.1,1.3-8.6,1.2c-5,0-9.3-0.7-13.2-3
		c-5.6-3.2-8.4-8.2-8.6-14.6c-0.2-9.5,4.3-16.6,11.7-22c6-4.4,12.8-6.8,20.3-7C57.4,331.6,61.7,332.5,65.6,334.7 M43.5,367.2
		c7.9,0.6,15.7-5,17.7-12.8c0.9-3.4,0-6.4-2.6-8.8c-2.2-2.1-5-2.9-8-2.8c-0.5,0-1,0-1.5,0c-0.4,0-0.8,0.1-1.2,0.2
		c-5.5,1.2-10.1,4-12.6,9.2C32,358.9,35.1,366.5,43.5,367.2"/>
</g>
<g>
	<path class="st0" d="M611.9,378.9h1c1.2,0,1.8-0.4,1.8-1.2c0-0.9-0.6-1.3-1.9-1.3h-0.9V378.9z M613.2,375.1c2.5,0,3.7,0.8,3.7,2.4
		c0,1.1-0.7,2-1.9,2.3l1.9,3.8h-2.3l-1.7-3.5h-1v3.5h-2.1v-8.5H613.2z M608.5,375c-1.3,1.2-2,2.9-2,4.6c0,1.7,0.6,3.3,1.9,4.5
		c1.2,1.2,2.9,1.9,4.6,1.9c1.7,0,3.3-0.7,4.6-1.9c1.2-1.2,1.9-2.8,1.9-4.4c0-1.8-0.6-3.4-1.9-4.6c-1.3-1.3-2.9-1.9-4.7-1.9
		C611.2,373.1,609.7,373.7,608.5,375 M618.6,374.2c1.4,1.4,2.2,3.3,2.2,5.4c0,2.1-0.8,4-2.3,5.4c-1.5,1.5-3.5,2.2-5.5,2.2
		c-2.1,0-4-0.8-5.5-2.3c-1.5-1.5-2.2-3.4-2.2-5.3c0-1.4,0.4-2.7,1.1-4c1.4-2.3,3.8-3.7,6.6-3.7C615.1,371.9,617.1,372.7,618.6,374.2
		"/>
</g>
</svg>
